<svg id="Group_1632" data-name="Group 1632" xmlns="http://www.w3.org/2000/svg" viewBox="0 0 237 64.848">
  <defs>
    <style>
      .cls-1 {
        fill: #fff;
      }
    </style>
  </defs>
  <path id="Path_556" data-name="Path 556" class="cls-1" d="M55.915,40.5v.345c0,.345-.115.8-.115,1.38a4.659,4.659,0,0,1,1.265,0H58.33l.115-1.265c0-.23.115-.345.115-.46H55.915Z" transform="translate(8.358 6.066)"/>
  <path id="Path_557" data-name="Path 557" class="cls-1" d="M67.519,43.934a5.034,5.034,0,0,0-2.415-.46,3.183,3.183,0,0,0-1.035.115c-.345.115-.8.115-1.38.23.115-1.38.115-2.415.23-3.219H60.275c0,1.38-.115,3.564-.23,6.324-.115,2.874-.23,4.829-.345,5.979h2.53l.115-1.495c.23.23.345.46.46.575s.23.345.46.46.345.23.575.345a1.634,1.634,0,0,0,.69.23,1.957,1.957,0,0,0,.8.115,4.766,4.766,0,0,0,1.84-.345,3.139,3.139,0,0,0,1.38-1.035,4,4,0,0,0,.8-1.725,6.378,6.378,0,0,0,.345-1.955,5.853,5.853,0,0,0-.575-2.53A4.3,4.3,0,0,0,67.519,43.934Zm-.69,5.749a2.935,2.935,0,0,1-.8,1.15,1.729,1.729,0,0,1-1.265.46,2.621,2.621,0,0,1-1.265-.345,2.045,2.045,0,0,1-.8-.92,3.927,3.927,0,0,1-.23-1.725v-.92l.115-1.495c.46-.115.8-.23,1.15-.345a2.245,2.245,0,0,1,.8-.115,2.7,2.7,0,0,1,1.955.69,2.9,2.9,0,0,1,.69,1.955C67.059,48.648,66.944,49.108,66.829,49.683Z" transform="translate(8.942 6.081)"/>
  <path id="Path_558" data-name="Path 558" class="cls-1" d="M61.583,31.639c.115-.8.115-1.84.23-3.1s.23-2.415.23-3.219H59.4a25.988,25.988,0,0,0-.115,2.989,11.37,11.37,0,0,0-.115,1.725,7.329,7.329,0,0,1-.23,1.035,5,5,0,0,1-.46.8,2.4,2.4,0,0,1-.69.46,2.706,2.706,0,0,1-.92.23,3.357,3.357,0,0,1-1.035-.23c-.345-.23-.575-.345-.69-.69a3.357,3.357,0,0,1-.23-1.035v-.46a1.7,1.7,0,0,0,.115-.8l.345-4.139H52.73v.92l-.115,2.989-.115,2.3v.115a2.771,2.771,0,0,0,.46,1.725,2.3,2.3,0,0,0,1.15.92,3.84,3.84,0,0,0,1.725.345,2.241,2.241,0,0,0,.92-.115,2.925,2.925,0,0,1,.8-.23l.69-.345a.9.9,0,0,0,.46-.46,2.019,2.019,0,0,1,.46-.575v1.495H61.7A18.656,18.656,0,0,0,61.583,31.639Z" transform="translate(7.863 3.774)"/>
  <path id="Path_559" data-name="Path 559" class="cls-1" d="M55.975,43.3c-.115,1.15-.115,2.3-.115,3.564-.115,1.265-.115,2.415-.23,3.334a17.713,17.713,0,0,1-.23,2.185h2.874c0-.69.115-1.725.115-2.874.115-1.265.115-2.3.115-3.219.115-.92.115-1.955.23-2.989H55.975Z" transform="translate(8.298 6.485)"/>
  <path id="Path_560" data-name="Path 560" class="cls-1" d="M49.139,34.213h2.53c0-1.495.115-2.874.23-4.254s.115-2.185.115-2.644a3.261,3.261,0,0,0-.46-1.495,2.271,2.271,0,0,0-1.265-.69,4.766,4.766,0,0,0-1.84-.23c-.575,0-1.265.115-1.84.115a18.681,18.681,0,0,0-2.185.46,2.245,2.245,0,0,0-.115.8,5.216,5.216,0,0,0-.23.92,18.141,18.141,0,0,1,3.564-.92c.345,0,.575.115.8.115a2.513,2.513,0,0,1,.575.345.878.878,0,0,1,.23.575.422.422,0,0,1-.115.345c-.115.115-.115.23-.23.345s-.23.23-.345.23c-.23.115-.345.115-.575.23s-.46.115-.69.23c-.8.23-1.495.345-2.07.575a6.693,6.693,0,0,0-1.265.575,3.049,3.049,0,0,1-.69.575,2.4,2.4,0,0,0-.46.69,2.245,2.245,0,0,0-.115.8,3.061,3.061,0,0,0,.345,1.38,1.632,1.632,0,0,0,1.035.92,4.378,4.378,0,0,0,1.84.345h.69c.23,0,.575-.115,1.035-.115a7.856,7.856,0,0,1,.46-1.495,4.686,4.686,0,0,1-.8.23c0-.115-.23-.115-.345-.115-.345,0-.575-.115-.8-.115a2.513,2.513,0,0,1-.575-.345.845.845,0,0,1-.23-.69.691.691,0,0,1,.115-.46l.345-.345c.115-.115.345-.23.46-.345.23-.115.345-.23.575-.23a7.922,7.922,0,0,1,.92-.345,4.686,4.686,0,0,1,.8-.23c.23-.115.345-.115.46-.23a2.513,2.513,0,0,1,.575-.345l-.115,2.185C49.254,32.718,49.254,33.523,49.139,34.213Z" transform="translate(6.396 3.729)"/>
  <path id="Path_561" data-name="Path 561" class="cls-1" d="M48.994,45.409a11.37,11.37,0,0,1,.115-1.725h-2.3a13.915,13.915,0,0,1,.115-2.185c-.575.23-1.035.23-1.265.345l-1.035.23A11.37,11.37,0,0,0,44.51,43.8H43.015a6.62,6.62,0,0,1-.115,1.725h1.265l-.23,3.794a9.161,9.161,0,0,1-.115,1.265v.345c0,.345.115.575.115.92.115.23.23.575.46.69a1.853,1.853,0,0,0,.8.46,4.311,4.311,0,0,0,1.265.115,2.245,2.245,0,0,0,.8-.115c.345-.115.69-.115,1.265-.23a7.971,7.971,0,0,0,.345-1.84c-.46.115-.69.23-.8.23a.869.869,0,0,1-.46.115,4.98,4.98,0,0,1-.575-.115.513.513,0,0,1-.345-.46,1.7,1.7,0,0,1-.115-.8c0-.46.115-1.84.23-4.254h2.185Z" transform="translate(6.426 6.216)"/>
  <path id="Path_562" data-name="Path 562" class="cls-1" d="M54.489,43.2a1.458,1.458,0,0,0-.69.115c-.23.115-.46.115-.69.23a2.019,2.019,0,0,0-.575.46c-.23.23-.345.46-.575.69l.115-1.265h-2.53v2.3l-.115,2.53-.23,4.254a3.2,3.2,0,0,1,1.15.115h1.265V51.593a13.915,13.915,0,0,1,.115-2.185,9.394,9.394,0,0,0,.115-1.61c.115-.345.115-.69.23-.92a4.869,4.869,0,0,1,.575-.8,2.4,2.4,0,0,1,.69-.46.953.953,0,0,1,.92-.345,2.532,2.532,0,0,1,.92.115,14.748,14.748,0,0,1-.115-2.07A4.98,4.98,0,0,0,54.489,43.2Z" transform="translate(7.369 6.47)"/>
  <path id="Path_563" data-name="Path 563" class="cls-1" d="M87.174,34.283c0-.69.115-1.725.115-2.874.115-1.265.115-2.3.115-3.219.115-.92.115-1.955.23-2.989H84.875c-.115,1.15-.115,2.3-.115,3.564a26.768,26.768,0,0,1-.23,3.334,17.717,17.717,0,0,1-.23,2.185h2.874Z" transform="translate(12.626 3.774)"/>
  <path id="Path_564" data-name="Path 564" class="cls-1" d="M114.774,22.5v.575a16.979,16.979,0,0,1-.115,2.415,11.464,11.464,0,0,0-1.84-.23,5.57,5.57,0,0,0-2.07.345,4.146,4.146,0,0,0-1.725.92,5.749,5.749,0,0,0-1.265,1.84,5.148,5.148,0,0,0-.46,2.3,7.764,7.764,0,0,0,.23,1.61,8.576,8.576,0,0,0,.8,1.38,3.261,3.261,0,0,0,1.265.92,4.058,4.058,0,0,0,1.61.345c.345,0,.69-.115,1.035-.115.345-.115.575-.23.92-.345a1.768,1.768,0,0,0,.69-.46,5,5,0,0,0,.69-.8l-.115,1.61h2.415c0-1.38,0-3.449.115-6.094s.23-4.714.345-6.209h-2.529Zm-.115,7.359a4.776,4.776,0,0,1-.345,1.495,2.5,2.5,0,0,1-.575.92,3.048,3.048,0,0,1-.69.575,2.706,2.706,0,0,1-.92.23,1.942,1.942,0,0,1-1.15-.345,3.1,3.1,0,0,1-.8-.92,2.274,2.274,0,0,1-.23-1.265,7.913,7.913,0,0,1,.23-1.495,4.747,4.747,0,0,1,.8-1.265,2.386,2.386,0,0,1,1.15-.69,4.941,4.941,0,0,1,1.38-.23,5.933,5.933,0,0,1,1.265.23C114.659,28.479,114.659,29.4,114.659,29.859Z" transform="translate(16.071 3.37)"/>
  <path id="Path_565" data-name="Path 565" class="cls-1" d="M95.544,34.7h2.415c0-1.38.115-3.449.115-6.094q.172-3.967.345-6.209H95.774v.69a16.981,16.981,0,0,1-.115,2.415,11.465,11.465,0,0,0-1.84-.23,5.57,5.57,0,0,0-2.07.345,4.146,4.146,0,0,0-1.725.92,5.749,5.749,0,0,0-1.265,1.84,5.148,5.148,0,0,0-.46,2.3,7.765,7.765,0,0,0,.23,1.61,8.576,8.576,0,0,0,.8,1.38,3.261,3.261,0,0,0,1.265.92,4.058,4.058,0,0,0,1.61.345c.345,0,.69-.115,1.035-.115.345-.115.575-.23.92-.345a1.768,1.768,0,0,0,.69-.46,5,5,0,0,0,.69-.8Zm0-4.829a14.993,14.993,0,0,1-.345,1.495,2.5,2.5,0,0,1-.575.92,3.048,3.048,0,0,1-.69.575,2.706,2.706,0,0,1-.92.23,1.942,1.942,0,0,1-1.15-.345,3.1,3.1,0,0,1-.8-.92,2.274,2.274,0,0,1-.23-1.265,7.914,7.914,0,0,1,.23-1.495,4.748,4.748,0,0,1,.8-1.265,2.386,2.386,0,0,1,1.15-.69,4.941,4.941,0,0,1,1.38-.23,5.933,5.933,0,0,1,1.265.23A15.609,15.609,0,0,1,95.544,29.874Z" transform="translate(13.225 3.355)"/>
  <path id="Path_566" data-name="Path 566" class="cls-1" d="M118.75,33.393a3.066,3.066,0,0,0,1.61.8,6.031,6.031,0,0,0,2.07.23,5.6,5.6,0,0,0,1.38-.115c.46-.115.92-.23,1.61-.345a10.478,10.478,0,0,1,.345-1.84,8.246,8.246,0,0,0-1.61.575,5.6,5.6,0,0,1-1.38.115,3.357,3.357,0,0,1-1.035-.23,2.5,2.5,0,0,1-.92-.575,2.062,2.062,0,0,1-.575-.8,3.357,3.357,0,0,1-.23-1.035V29.6h6.554c0-.345.115-.575.115-.8a3.672,3.672,0,0,0-.345-1.61,4.748,4.748,0,0,0-.8-1.265,2.623,2.623,0,0,0-1.38-.69,4.469,4.469,0,0,0-1.725-.23,4.767,4.767,0,0,0-1.84.345,5.764,5.764,0,0,0-1.61.92,4.33,4.33,0,0,0-1.035,1.725,6.51,6.51,0,0,0-.345,2.07,4.766,4.766,0,0,0,.345,1.84A3.787,3.787,0,0,0,118.75,33.393Zm1.38-5.519c.115-.23.23-.345.345-.575s.345-.345.46-.46a.994.994,0,0,1,.69-.345,1.458,1.458,0,0,1,.69-.115.862.862,0,0,1,.575.115.6.6,0,0,1,.46.23l.345.345c.115.23.23.345.23.46a.869.869,0,0,1,.115.46v.69H119.9A2.925,2.925,0,0,0,120.13,27.874Z" transform="translate(17.614 3.744)"/>
  <path id="Path_567" data-name="Path 567" class="cls-1" d="M104.439,34.213h2.53c0-1.495.115-2.874.23-4.254s.115-2.185.115-2.644a3.261,3.261,0,0,0-.46-1.495,2.271,2.271,0,0,0-1.265-.69,4.766,4.766,0,0,0-1.84-.23c-.575,0-1.265.115-1.84.115a18.682,18.682,0,0,0-2.185.46,2.245,2.245,0,0,0-.115.8,5.218,5.218,0,0,0-.23.92,18.141,18.141,0,0,1,3.564-.92c.345,0,.575.115.8.115a2.513,2.513,0,0,1,.575.345.633.633,0,0,1,.23.575.422.422,0,0,1-.115.345c-.115.115-.115.23-.23.345s-.23.23-.345.23c-.23.115-.345.115-.575.23s-.46.115-.69.23c-.8.23-1.495.345-2.07.575a6.694,6.694,0,0,0-1.265.575,3.048,3.048,0,0,1-.69.575,2.406,2.406,0,0,0-.46.69,2.245,2.245,0,0,0-.115.8,3.061,3.061,0,0,0,.345,1.38,1.632,1.632,0,0,0,1.035.92,4.378,4.378,0,0,0,1.84.345h.69c.23,0,.575-.115,1.035-.115a7.854,7.854,0,0,1,.46-1.495,4.687,4.687,0,0,1-.8.23,1.25,1.25,0,0,1-.575.115c-.345,0-.575-.115-.8-.115a2.514,2.514,0,0,1-.575-.345.845.845,0,0,1-.23-.69.691.691,0,0,1,.115-.46l.345-.345c.115-.115.345-.23.46-.345.23-.115.345-.23.575-.23a7.92,7.92,0,0,1,.92-.345,4.686,4.686,0,0,1,.8-.23c.23-.115.345-.115.46-.23a2.513,2.513,0,0,1,.575-.345l-.115,2.185C104.554,32.718,104.439,33.523,104.439,34.213Z" transform="translate(14.678 3.729)"/>
  <path id="Path_568" data-name="Path 568" class="cls-1" d="M68.079,27.309a11.37,11.37,0,0,1,.115-1.725h-2.3a13.914,13.914,0,0,1,.115-2.185c-.575.23-1.035.23-1.265.345l-1.035.23a11.37,11.37,0,0,0-.115,1.725h-1.38a6.62,6.62,0,0,1-.115,1.725h1.15l-.23,3.564a7.6,7.6,0,0,0-.115,1.265V32.6c0,.345.115.575.115.92.115.23.23.575.46.69a1.853,1.853,0,0,0,.8.46,4.311,4.311,0,0,0,1.265.115,2.245,2.245,0,0,0,.8-.115c.345-.115.69-.115,1.265-.23a7.971,7.971,0,0,0,.345-1.84,4.686,4.686,0,0,1-.8.23.869.869,0,0,1-.46.115,4.98,4.98,0,0,1-.575-.115c-.23-.115-.345-.23-.345-.46a1.7,1.7,0,0,1-.115-.8c0-.46.115-1.84.23-4.254Z" transform="translate(9.301 3.505)"/>
  <path id="Path_569" data-name="Path 569" class="cls-1" d="M86.065,24.025H87.33l.115-1.265c0-.23.115-.345.115-.46H84.915v.345c0,.345-.115.8-.115,1.38Z" transform="translate(12.701 3.34)"/>
  <path id="Path_570" data-name="Path 570" class="cls-1" d="M73.044,34.543a6.013,6.013,0,0,0,2.07-.345,3.9,3.9,0,0,0,1.61-1.035,4.823,4.823,0,0,0,1.035-1.61A6.378,6.378,0,0,0,78.1,29.6a5.207,5.207,0,0,0-.345-1.84,6.518,6.518,0,0,0-.92-1.495,4.511,4.511,0,0,0-1.61-.92A6.378,6.378,0,0,0,73.274,25a6.694,6.694,0,0,0-2.185.345,4.33,4.33,0,0,0-1.725,1.035,2.848,2.848,0,0,0-.92,1.61,5.078,5.078,0,0,0,0,3.679,4.375,4.375,0,0,0,1.035,1.495,5.379,5.379,0,0,0,1.61.92A3.779,3.779,0,0,0,73.044,34.543Zm-2.415-4.6a3.672,3.672,0,0,1,.345-1.61,1.9,1.9,0,0,1,.92-1.15,2.731,2.731,0,0,1,1.38-.345,3.061,3.061,0,0,1,1.38.345,3.1,3.1,0,0,1,.8.92,2.49,2.49,0,0,1,.23,1.38,4.2,4.2,0,0,1-.345,1.725,2.3,2.3,0,0,1-.92,1.15,2.731,2.731,0,0,1-1.38.345,3.061,3.061,0,0,1-1.38-.345,3.1,3.1,0,0,1-.8-.92A2.931,2.931,0,0,1,70.63,29.944Z" transform="translate(10.2 3.744)"/>
  <path id="Path_571" data-name="Path 571" class="cls-1" d="M76.7,43.415a25.988,25.988,0,0,0-.115,2.989,11.37,11.37,0,0,0-.115,1.725,7.329,7.329,0,0,1-.23,1.035,5,5,0,0,1-.46.8,2.406,2.406,0,0,1-.69.46,2.166,2.166,0,0,1-.92.23,3.357,3.357,0,0,1-1.035-.23c-.345-.23-.575-.345-.69-.69a3.357,3.357,0,0,1-.23-1.035v-.46c0-.23.115-.46.115-.8l.345-4.139H70.03v.92l-.115,2.989-.115,2.3v.23a2.771,2.771,0,0,0,.46,1.725,2.3,2.3,0,0,0,1.15.92,3.84,3.84,0,0,0,1.725.345,2.241,2.241,0,0,0,.92-.115,2.925,2.925,0,0,1,.8-.23l.69-.345a.9.9,0,0,0,.46-.46,2.018,2.018,0,0,1,.46-.575V52.5H79a6.629,6.629,0,0,0-.115-2.644c.115-.8.115-1.84.23-3.1s.23-2.415.23-3.219H78.078A4.738,4.738,0,0,0,76.7,43.415Z" transform="translate(10.455 6.485)"/>
  <path id="Path_572" data-name="Path 572" class="cls-1" d="M80.63,33.378a13.915,13.915,0,0,1,.115-2.185,9.394,9.394,0,0,0,.115-1.61c.115-.345.115-.69.23-.92a4.868,4.868,0,0,1,.575-.8,2.4,2.4,0,0,1,.69-.46,2.166,2.166,0,0,1,.92-.23,2.532,2.532,0,0,1,.92.115,14.748,14.748,0,0,1-.115-2.07c-.23,0-.46-.115-.69-.115a1.458,1.458,0,0,0-.69.115c-.23.115-.46.115-.69.23a2.019,2.019,0,0,0-.575.46c-.23.23-.345.46-.575.69l.115-1.265h-2.53v2.3l-.115,2.53-.23,4.254a3.2,3.2,0,0,1,1.15.115h1.265A5.28,5.28,0,0,0,80.63,33.378Z" transform="translate(11.698 3.759)"/>
  <path id="Path_573" data-name="Path 573" class="cls-1" d="M91.159,41.45c.23-.23.46-.69.92-1.15H89.32l-.345.69c-.115.345-.23.46-.23.69l-.345.8a2.241,2.241,0,0,0,.92-.115h.92Z" transform="translate(13.24 6.036)"/>
  <path id="Path_574" data-name="Path 574" class="cls-1" d="M92.474,43.33a4.766,4.766,0,0,0-1.84-.23c-.575,0-1.265.115-1.84.115a18.678,18.678,0,0,0-2.185.46,2.245,2.245,0,0,0-.115.8,5.217,5.217,0,0,0-.23.92,18.141,18.141,0,0,1,3.564-.92c.345,0,.575.115.8.115a2.513,2.513,0,0,1,.575.345.633.633,0,0,1,.23.575.422.422,0,0,1-.115.345c-.115.115-.23.23-.23.345s-.23.23-.345.23c-.23.115-.345.115-.575.23s-.46.115-.69.23c-.8.23-1.495.345-2.07.575a6.694,6.694,0,0,0-1.265.575,3.048,3.048,0,0,1-.69.575,2.4,2.4,0,0,0-.46.69c.115.115,0,.345,0,.575a3.062,3.062,0,0,0,.345,1.38,1.632,1.632,0,0,0,1.035.92,4.378,4.378,0,0,0,1.84.345h.69c.23,0,.575-.115,1.035-.115a7.855,7.855,0,0,1,.46-1.495,4.686,4.686,0,0,1-.8.23,1.25,1.25,0,0,1-.575.115c-.345,0-.575-.115-.8-.115a2.513,2.513,0,0,1-.575-.345.845.845,0,0,1-.23-.69.691.691,0,0,1,.115-.46l.345-.345c.115-.115.345-.23.46-.345.23-.115.345-.23.575-.23a7.922,7.922,0,0,1,.92-.345,4.687,4.687,0,0,1,.8-.23c.23-.115.345-.115.46-.23a2.513,2.513,0,0,1,.575-.345l-.115,2.3c-.115.92-.115,1.725-.23,2.53h2.53c0-1.495.115-2.874.23-4.254s.115-2.185.115-2.644a3.261,3.261,0,0,0-.46-1.495A12.54,12.54,0,0,0,92.474,43.33Z" transform="translate(12.731 6.455)"/>
  <path id="Path_575" data-name="Path 575" class="cls-1" d="M85.179,45.409a11.368,11.368,0,0,1,.115-1.725h-2.3a13.917,13.917,0,0,1,.115-2.185c-.575.23-1.035.23-1.265.345l-1.035.23a11.37,11.37,0,0,0-.115,1.725h-1.38a6.621,6.621,0,0,1-.115,1.725h1.265l-.23,3.794a7.6,7.6,0,0,0-.115,1.265v.345c0,.345.115.575.115.92.115.23.23.575.46.69a1.853,1.853,0,0,0,.8.46,4.311,4.311,0,0,0,1.265.115,2.245,2.245,0,0,0,.8-.115c.345-.115.69-.115,1.265-.23a7.971,7.971,0,0,0,.345-1.84,4.687,4.687,0,0,1-.8.23.869.869,0,0,1-.46.115,4.979,4.979,0,0,1-.575-.115c-.23-.115-.345-.23-.345-.46a1.7,1.7,0,0,1-.115-.8c0-.46.115-1.84.23-4.254h2.07Z" transform="translate(11.862 6.216)"/>
  <path id="Path_576" data-name="Path 576" class="cls-1" d="M137.889,43.33a4.766,4.766,0,0,0-1.84-.23c-.575,0-1.265.115-1.84.115a18.677,18.677,0,0,0-2.185.46,2.244,2.244,0,0,0-.115.8,5.215,5.215,0,0,0-.23.92,18.141,18.141,0,0,1,3.564-.92c.345,0,.575.115.8.115a2.514,2.514,0,0,1,.575.345.633.633,0,0,1,.23.575.422.422,0,0,1-.115.345c-.115.115-.23.23-.23.345s-.23.23-.345.23c-.23.115-.345.115-.575.23s-.46.115-.69.23c-.8.23-1.495.345-2.07.575a6.694,6.694,0,0,0-1.265.575,3.048,3.048,0,0,1-.69.575,2.4,2.4,0,0,0-.46.69,2.244,2.244,0,0,0-.115.8,3.061,3.061,0,0,0,.345,1.38,1.632,1.632,0,0,0,1.035.92,4.378,4.378,0,0,0,1.84.345h.69c.23,0,.575-.115,1.035-.115a7.858,7.858,0,0,1,.46-1.495,4.686,4.686,0,0,1-.8.23,1.25,1.25,0,0,1-.575.115c-.345,0-.575-.115-.8-.115a2.513,2.513,0,0,1-.575-.345.845.845,0,0,1-.23-.69.691.691,0,0,1,.115-.46l.345-.345c.115-.115.345-.23.46-.345.23-.115.345-.23.575-.23a7.923,7.923,0,0,1,.92-.345,4.687,4.687,0,0,1,.8-.23c.23-.115.345-.115.46-.23a2.514,2.514,0,0,1,.575-.345L136.854,50c-.115.92-.115,1.725-.23,2.53h2.53c0-1.495.115-2.874.23-4.254s.115-2.185.115-2.644a3.261,3.261,0,0,0-.46-1.495C138.923,43.79,138.463,43.56,137.889,43.33Z" transform="translate(19.516 6.455)"/>
  <path id="Path_577" data-name="Path 577" class="cls-1" d="M187.133,44.12a2.623,2.623,0,0,0-1.38-.69,4.469,4.469,0,0,0-1.725-.23,4.767,4.767,0,0,0-1.84.345,5.764,5.764,0,0,0-1.61.92,4.33,4.33,0,0,0-1.035,1.725,6.512,6.512,0,0,0-.345,2.07,4.767,4.767,0,0,0,.345,1.84,4.376,4.376,0,0,0,1.035,1.495,3.066,3.066,0,0,0,1.61.8,6.031,6.031,0,0,0,2.07.23,5.6,5.6,0,0,0,1.38-.115c.46-.115.92-.23,1.61-.345a10.473,10.473,0,0,1,.345-1.84,8.246,8.246,0,0,0-1.61.575,5.6,5.6,0,0,1-1.38.115,3.357,3.357,0,0,1-1.035-.23,2.5,2.5,0,0,1-.92-.575,2.063,2.063,0,0,1-.575-.8,3.357,3.357,0,0,1-.23-1.035V47.8H188.4c0-.345.115-.575.115-.8a3.673,3.673,0,0,0-.345-1.61A12.224,12.224,0,0,0,187.133,44.12Zm-1.265,2.644h-4.139c.115-.23.115-.46.23-.69s.23-.345.345-.575.345-.345.46-.46a.994.994,0,0,1,.69-.345c.23,0,.46-.115.69-.115a.862.862,0,0,1,.575.115.6.6,0,0,1,.46.23l.345.345c.115.23.23.345.23.46a.869.869,0,0,1,.115.46Z" transform="translate(26.84 6.47)"/>
  <path id="Path_578" data-name="Path 578" class="cls-1" d="M188.775,43.3c-.115,1.15-.115,2.3-.115,3.564-.115,1.265-.115,2.415-.23,3.334a17.712,17.712,0,0,1-.23,2.185h2.874c0-.69.115-1.725.115-2.874.115-1.265.115-2.3.115-3.219.115-.92.115-1.955.23-2.989h-2.759Z" transform="translate(28.188 6.485)"/>
  <path id="Path_579" data-name="Path 579" class="cls-1" d="M178.2,43.92a1.955,1.955,0,0,0-1.15-.69,5.825,5.825,0,0,0-1.495-.23,2.241,2.241,0,0,0-.92.115,7.327,7.327,0,0,0-.8.23,3.829,3.829,0,0,0-.69.345c-.23.23-.46.345-.575.46a2.507,2.507,0,0,0-.46.575l.115-1.495h-2.645c-.115,1.38-.115,2.874-.23,4.484-.115,1.725-.23,3.219-.345,4.6a4.738,4.738,0,0,0,1.38-.115h1.265c0-1.495.115-2.644.115-3.449a18.914,18.914,0,0,1,.345-2.07,2.5,2.5,0,0,1,.575-.92,2.062,2.062,0,0,1,.8-.575,2.443,2.443,0,0,1,2.07,0c.345.23.575.345.69.69a1.891,1.891,0,0,1,.23,1.15c0,.345-.115,1.265-.115,2.53-.115,1.265-.115,2.185-.23,2.759h2.644c0-.575.115-1.265.115-1.725l.23-3.909v-.8A3.183,3.183,0,0,0,179,44.84C178.658,44.61,178.543,44.265,178.2,43.92Z" transform="translate(25.313 6.44)"/>
  <path id="Path_580" data-name="Path 580" class="cls-1" d="M197.689,43.2a1.458,1.458,0,0,0-.69.115c-.23.115-.46.115-.69.23a2.019,2.019,0,0,0-.575.46c-.23.23-.345.46-.575.69l.115-1.265h-2.53v2.3l-.115,2.53-.23,4.254a2.884,2.884,0,0,1,1.15.115h1.265V51.593a13.913,13.913,0,0,1,.115-2.185,9.392,9.392,0,0,0,.115-1.61c.115-.345.115-.69.23-.92a4.868,4.868,0,0,1,.575-.8,2.4,2.4,0,0,1,.69-.46,2.166,2.166,0,0,1,.92-.23,2.532,2.532,0,0,1,.92.115,14.746,14.746,0,0,1-.115-2.07A.878.878,0,0,0,197.689,43.2Z" transform="translate(28.817 6.47)"/>
  <path id="Path_581" data-name="Path 581" class="cls-1" d="M206.953,44.02a2.271,2.271,0,0,0-1.265-.69,4.766,4.766,0,0,0-1.84-.23c-.575,0-1.265.115-1.84.115a18.682,18.682,0,0,0-2.185.46,2.244,2.244,0,0,0-.115.8,5.209,5.209,0,0,0-.23.92,16.321,16.321,0,0,1,3.564-.92c.345,0,.575.115.8.115a2.515,2.515,0,0,1,.575.345.633.633,0,0,1,.23.575.422.422,0,0,1-.115.345c-.115.115-.23.23-.23.345s-.23.23-.345.23c-.23.115-.345.115-.575.23s-.46.115-.69.23c-.8.23-1.495.345-2.07.575a6.691,6.691,0,0,0-1.265.575,3.049,3.049,0,0,1-.69.575,2.4,2.4,0,0,0-.46.69,2.244,2.244,0,0,0-.115.8,3.062,3.062,0,0,0,.345,1.38,1.632,1.632,0,0,0,1.035.92,4.378,4.378,0,0,0,1.84.345h.69c.23,0,.575-.115,1.035-.115a7.858,7.858,0,0,1,.46-1.495,4.688,4.688,0,0,1-.8.23,1.25,1.25,0,0,1-.575.115c-.345,0-.575-.115-.8-.115a2.514,2.514,0,0,1-.575-.345.845.845,0,0,1-.23-.69.691.691,0,0,1,.115-.46l.345-.345c.115-.115.345-.23.46-.345.23-.115.345-.23.575-.23a7.918,7.918,0,0,1,.92-.345,4.687,4.687,0,0,1,.8-.23c.23-.115.345-.115.46-.23a2.514,2.514,0,0,1,.575-.345L204.654,50c-.115.92-.115,1.725-.23,2.53h2.53c0-1.495.115-2.874.23-4.254s.115-2.185.115-2.644A2.4,2.4,0,0,0,206.953,44.02Z" transform="translate(29.671 6.455)"/>
  <path id="Path_582" data-name="Path 582" class="cls-1" d="M157.1,43.415a25.985,25.985,0,0,0-.115,2.989,11.368,11.368,0,0,0-.115,1.725,7.333,7.333,0,0,1-.23,1.035,5,5,0,0,1-.46.8,2.4,2.4,0,0,1-.69.46,2.166,2.166,0,0,1-.92.23,3.357,3.357,0,0,1-1.035-.23c-.345-.23-.575-.345-.69-.69a3.358,3.358,0,0,1-.23-1.035v-.46a1.7,1.7,0,0,0,.115-.8l.345-4.139H150.43v.92l-.115,2.989-.115,2.3v.23a2.771,2.771,0,0,0,.46,1.725,2.3,2.3,0,0,0,1.15.92,3.84,3.84,0,0,0,1.725.345,2.241,2.241,0,0,0,.92-.115,2.925,2.925,0,0,1,.8-.23l.69-.345a.9.9,0,0,0,.46-.46,2.019,2.019,0,0,1,.46-.575V52.5h2.53a18.661,18.661,0,0,0-.115-2.644c.115-.8.115-1.84.23-3.1s.23-2.415.23-3.219h-1.265A4.343,4.343,0,0,0,157.1,43.415Z" transform="translate(22.497 6.485)"/>
  <path id="Path_583" data-name="Path 583" class="cls-1" d="M188.815,40.5v.345c0,.345-.115.8-.115,1.38a4.659,4.659,0,0,1,1.265,0h1.265l.115-1.265a.869.869,0,0,0,.115-.46h-2.645Z" transform="translate(28.263 6.066)"/>
  <path id="Path_584" data-name="Path 584" class="cls-1" d="M166.989,43.33a4.766,4.766,0,0,0-1.84-.23c-.575,0-1.265.115-1.84.115a18.678,18.678,0,0,0-2.185.46,2.245,2.245,0,0,0-.115.8,5.214,5.214,0,0,0-.23.92,16.321,16.321,0,0,1,3.564-.92c.345,0,.575.115.8.115a2.512,2.512,0,0,1,.575.345.633.633,0,0,1,.23.575.422.422,0,0,1-.115.345c-.115.115-.115.23-.23.345s-.23.23-.345.23c-.23.115-.345.115-.575.23s-.46.115-.69.23c-.8.23-1.495.345-2.07.575a6.7,6.7,0,0,0-1.265.575,3.048,3.048,0,0,1-.69.575,2.4,2.4,0,0,0-.46.69,2.244,2.244,0,0,0-.115.8,3.062,3.062,0,0,0,.345,1.38,1.632,1.632,0,0,0,1.035.92,4.378,4.378,0,0,0,1.84.345h.69c.23,0,.575-.115,1.035-.115.23-.69.345-1.15.46-1.495a4.687,4.687,0,0,1-.8.23,1.25,1.25,0,0,1-.575.115c-.345,0-.575-.115-.8-.115a2.514,2.514,0,0,1-.575-.345.845.845,0,0,1-.23-.69.691.691,0,0,1,.115-.46l.345-.345c.115-.115.345-.23.46-.345.23-.115.345-.23.575-.23a7.925,7.925,0,0,1,.92-.345,4.687,4.687,0,0,1,.8-.23c.23-.115.345-.115.46-.23a2.514,2.514,0,0,1,.575-.345L165.954,50c-.115.92-.115,1.725-.23,2.53h2.53c0-1.495.115-2.874.23-4.254s.115-2.185.115-2.644a3.261,3.261,0,0,0-.46-1.495A2.935,2.935,0,0,0,166.989,43.33Z" transform="translate(23.875 6.455)"/>
  <path id="Path_585" data-name="Path 585" class="cls-1" d="M111.989,43.33a4.766,4.766,0,0,0-1.84-.23c-.575,0-1.265.115-1.84.115a18.678,18.678,0,0,0-2.185.46,2.245,2.245,0,0,0-.115.8,5.218,5.218,0,0,0-.23.92,18.141,18.141,0,0,1,3.564-.92c.345,0,.575.115.8.115a2.513,2.513,0,0,1,.575.345.633.633,0,0,1,.23.575.422.422,0,0,1-.115.345c-.115.115-.115.23-.23.345s-.23.23-.345.23c-.23.115-.345.115-.575.23s-.46.115-.69.23c-.8.23-1.495.345-2.07.575a6.693,6.693,0,0,0-1.265.575,3.048,3.048,0,0,1-.69.575,2.406,2.406,0,0,0-.46.69,2.245,2.245,0,0,0-.115.8,3.061,3.061,0,0,0,.345,1.38,1.632,1.632,0,0,0,1.035.92,4.378,4.378,0,0,0,1.84.345h.69c.23,0,.575-.115,1.035-.115.23-.69.345-1.15.46-1.495a4.687,4.687,0,0,1-.8.23,1.25,1.25,0,0,1-.575.115c-.345,0-.575-.115-.8-.115a2.514,2.514,0,0,1-.575-.345.845.845,0,0,1-.23-.69.691.691,0,0,1,.115-.46l.345-.345c.115-.115.345-.23.46-.345.23-.115.345-.23.575-.23a7.924,7.924,0,0,1,.92-.345,4.686,4.686,0,0,1,.8-.23c.23-.115.345-.115.46-.23a2.513,2.513,0,0,1,.575-.345L110.954,50c-.115.92-.115,1.725-.23,2.53h2.53c0-1.495.115-2.874.23-4.254s.115-2.185.115-2.644a3.261,3.261,0,0,0-.46-1.495A2.275,2.275,0,0,0,111.989,43.33Z" transform="translate(15.637 6.455)"/>
  <path id="Path_586" data-name="Path 586" class="cls-1" d="M99.789,43.2a1.458,1.458,0,0,0-.69.115c-.23.115-.46.115-.69.23a2.019,2.019,0,0,0-.575.46c-.23.23-.345.46-.575.69l.115-1.265h-2.53v2.3l-.115,2.53-.23,4.254a3.2,3.2,0,0,1,1.15.115h1.265V51.593c0-.69.115-1.495.115-2.185a9.394,9.394,0,0,0,.115-1.61c.115-.345.115-.69.23-.92a4.868,4.868,0,0,1,.575-.8,2.4,2.4,0,0,1,.69-.46,1.267,1.267,0,0,1,1.035-.345,2.531,2.531,0,0,1,.92.115,14.75,14.75,0,0,1-.115-2.07A4.066,4.066,0,0,0,99.789,43.2Z" transform="translate(14.154 6.47)"/>
  <path id="Path_587" data-name="Path 587" class="cls-1" d="M101.275,43.3c-.115,1.15-.115,2.3-.115,3.564-.115,1.265-.115,2.415-.23,3.334a17.715,17.715,0,0,1-.23,2.185h2.874c0-.69.115-1.725.115-2.874.115-1.265.115-2.3.115-3.219.115-.92.115-1.955.23-2.989h-2.759Z" transform="translate(15.083 6.485)"/>
  <path id="Path_588" data-name="Path 588" class="cls-1" d="M101.215,40.5v.345c0,.345-.115.8-.115,1.38a4.638,4.638,0,0,1,1.265,0h1.265l.115-1.265c0-.23.115-.345.115-.46h-2.644Z" transform="translate(15.143 6.066)"/>
  <path id="Path_589" data-name="Path 589" class="cls-1" d="M147.174,40.6v.575a16.979,16.979,0,0,1-.115,2.415,11.464,11.464,0,0,0-1.84-.23,5.57,5.57,0,0,0-2.07.345,4.146,4.146,0,0,0-1.725.92,5.75,5.75,0,0,0-1.265,1.84,5.481,5.481,0,0,0-.46,2.3,7.763,7.763,0,0,0,.23,1.61,8.574,8.574,0,0,0,.8,1.38,3.261,3.261,0,0,0,1.265.92,4.058,4.058,0,0,0,1.61.345c.345,0,.69-.115,1.035-.115s.575-.23.92-.345a1.768,1.768,0,0,0,.69-.46,5,5,0,0,0,.69-.8l-.115,1.61h2.415c0-1.38.115-3.449.115-6.094q.172-3.967.345-6.209h-2.53Zm-.115,7.359a4.777,4.777,0,0,1-.345,1.495,2.5,2.5,0,0,1-.575.92,3.048,3.048,0,0,1-.69.575,2.706,2.706,0,0,1-.92.23,1.942,1.942,0,0,1-1.15-.345,3.1,3.1,0,0,1-.8-.92,2.274,2.274,0,0,1-.23-1.265,7.912,7.912,0,0,1,.23-1.495,4.747,4.747,0,0,1,.8-1.265,2.386,2.386,0,0,1,1.15-.69,4.942,4.942,0,0,1,1.38-.23,5.933,5.933,0,0,1,1.265.23C147.174,46.694,147.059,47.614,147.059,47.959Z" transform="translate(20.924 6.081)"/>
  <path id="Path_590" data-name="Path 590" class="cls-1" d="M125.933,44.12a2.623,2.623,0,0,0-1.38-.69,4.469,4.469,0,0,0-1.725-.23,4.767,4.767,0,0,0-1.84.345,5.764,5.764,0,0,0-1.61.92,3.334,3.334,0,0,0-1.035,1.725,6.511,6.511,0,0,0-.345,2.07,4.766,4.766,0,0,0,.345,1.84,4.375,4.375,0,0,0,1.035,1.495,3.066,3.066,0,0,0,1.61.8,6.031,6.031,0,0,0,2.07.23,5.6,5.6,0,0,0,1.38-.115c.46-.115.92-.23,1.61-.345a10.478,10.478,0,0,1,.345-1.84,8.247,8.247,0,0,0-1.61.575,5.6,5.6,0,0,1-1.38.115,3.357,3.357,0,0,1-1.035-.23,2.5,2.5,0,0,1-.92-.575,2.062,2.062,0,0,1-.575-.8,3.357,3.357,0,0,1-.23-1.035V47.8H127.2c0-.345.115-.575.115-.8a3.672,3.672,0,0,0-.345-1.61A12.224,12.224,0,0,0,125.933,44.12Zm-1.265,2.644H120.53c.115-.23.115-.46.23-.69,0-.23.115-.345.23-.575s.345-.345.46-.46a.994.994,0,0,1,.69-.345c.23,0,.46-.115.69-.115a.862.862,0,0,1,.575.115.6.6,0,0,1,.46.23l.345.345c.115.23.23.345.23.46a.869.869,0,0,1,.115.46C124.669,46.3,124.669,46.419,124.669,46.764Z" transform="translate(17.674 6.47)"/>
  <path id="Path_591" data-name="Path 591" class="cls-1" d="M45.415,21.982h1.955l.115-.23c.69-1.495,1.495-2.989,2.3-4.484h5.059a12.26,12.26,0,0,1,.8,2.185,18.25,18.25,0,0,1,.8,2.3l.115.23h4.139l-.69-1.495L56.8,12.439,55.188,8.3H50.818l-.115.23c-.69,1.265-1.38,2.644-2.07,3.909l-2.759,4.714c-.8,1.495-1.61,2.874-2.53,4.369l-.345.46h2.415Zm7.014-9.658.46-.92,1.265,3.219h-3.1Z" transform="translate(6.44 1.243)"/>
  <path id="Path_592" data-name="Path 592" class="cls-1" d="M62.324,10.844h.345l-.115,3.794-.23,4.139-.23,3.1h4.139V18.893l.345-6.784.115-1.495h.46c1.265,0,2.415,0,3.679.115h.345v-.345c0-.69.115-1.38.115-2.07V8.2H58.415v.345a13.2,13.2,0,0,0-.115,2.07v.345l2.759-.115Z" transform="translate(8.732 1.228)"/>
  <path id="Path_593" data-name="Path 593" class="cls-1" d="M43.117,36.1l.46-5.174-.8-.23a28.946,28.946,0,0,0-1.84-8.738l1.035-.575-4.024-7.7-.46-4.254H32.769A31.651,31.651,0,0,0,14.947.92V5.174A26.806,26.806,0,0,1,25.985,9.313H14.717V0H10.923V9.428H0L2.3,28.744H7.014v7.129c-.23,1.61-2.07,2.415-3.679,2.53l2.53,20.926h5.059v5.519H14.6V59.329h3.564a26.483,26.483,0,0,1-3.219.69v4.254A31.646,31.646,0,0,0,28.4,59.329H43.462l-2.07-17.477a49.961,49.961,0,0,0,1.15-5.979ZM11.268.46h2.874V11.038H11.268Zm2.989,63.813H11.383V55.534a24.492,24.492,0,0,0,2.874-.345Zm2.3-16.212c-.345,1.61-2.185,2.53-3.794,2.53-1.495,0-3.449-.8-3.679-2.53V41.047h7.474Zm0-12.188c-.345,1.61-2.185,2.53-3.794,2.53-1.495,0-3.449-.8-3.679-2.53V28.859h7.474Zm0-12.3c-.345,1.61-2.185,2.53-3.794,2.53-1.495,0-3.449-.8-3.679-2.53V16.557h7.474Zm26.56,7.7-.345,4.254L30.239,32.769V28.285Zm-5.979,4.6c-.115.8-.23,1.725-.345,2.53l-7.014,2.185a.422.422,0,0,1,.115-.345V36.793L34.608,35.3Zm5.174-5.634-3.564-.8a41.2,41.2,0,0,0-1.035-5.174l3.1-1.61A32.88,32.88,0,0,1,42.312,30.239ZM37.828,14.257l3.564,7.014L30.239,27.25V18.281ZM15.407,4.944V1.495A31.65,31.65,0,0,1,36.448,14.142l-3.1,1.61a22.165,22.165,0,0,0-3.1-3.449V11.038H28.744A27.305,27.305,0,0,0,15.407,4.944Zm3.219,23.8H26.1v7.014c-.345,1.61-2.185,2.53-3.794,2.53-1.495,0-3.449-.8-3.679-2.53ZM15.407,63.7V60.248A27.728,27.728,0,0,0,33.114,49.67l3.334,1.265A32.064,32.064,0,0,1,15.407,63.7ZM37.023,50.245,27.94,46.681a12.739,12.739,0,0,0,1.61-3.334l9.658,3.564A33.3,33.3,0,0,1,37.023,50.245Zm2.3-4.139L36.1,44.956a27.757,27.757,0,0,0,2.759-9.428l3.334.69A32.633,32.633,0,0,1,39.322,46.106Z"/>
</svg>
