<svg id="Group_1781" data-name="Group 1781" xmlns="http://www.w3.org/2000/svg" viewBox="0 0 301.189 37.839">
  <defs>
    <style>
      .cls-1 {
        fill: #f5e3ef;
      }

      .cls-2 {
        fill: #cf529b;
      }

      .cls-3 {
        fill: #d45ca2;
      }

      .cls-4 {
        fill: #ba2f7b;
      }

      .cls-5 {
        fill: #de87b8;
      }

      .cls-6 {
        fill: #c14b8b;
      }

      .cls-7 {
        fill: #e8b0d1;
      }

      .cls-8 {
        fill: #d376ab;
      }

      .cls-9 {
        fill: #f4d8e8;
      }

      .cls-10 {
        fill: #e4aaca;
      }

      .cls-11 {
        fill: #b1206a;
      }

      .cls-12 {
        fill: #9a1b4e;
      }

      .cls-13 {
        fill: #c4478b;
      }

      .cls-14 {
        fill: #a92365;
      }

      .cls-15 {
        fill: #9f1e59;
      }

      .cls-16 {
        fill: #edc9e0;
      }

      .cls-17 {
        fill: #da89b7;
      }

      .cls-18 {
        fill: #d779ae;
      }

      .cls-19 {
        fill: #c3508d;
      }

      .cls-20 {
        fill: #ba3d7d;
      }

      .cls-21 {
        fill: #c74790;
      }

      .cls-22 {
        fill: #d884b6;
      }

      .cls-23 {
        fill: #a21e59;
      }

      .cls-24 {
        fill: #8c1841;
      }

      .cls-25 {
        fill: #b72e77;
      }

      .cls-26 {
        fill: #b42870;
      }

      .cls-27 {
        fill: #a01e5a;
      }

      .cls-28 {
        fill: #9a1c50;
      }

      .cls-29 {
        fill: #951a4a;
      }

      .cls-30 {
        fill: #851538;
      }

      .cls-31 {
        fill: #931944;
      }

      .cls-32 {
        fill: #9b1c4d;
      }

      .cls-33 {
        fill: #7e1231;
      }

      .cls-34 {
        fill: #29aae1;
      }

      .cls-35 {
        fill: #a92065;
      }

      .cls-36 {
        fill: #c53e89;
      }

      .cls-37 {
        fill: #404857;
      }

      .cls-38 {
        fill: #f9ae42;
      }
    </style>
  </defs>
  <path id="Path_594" data-name="Path 594" class="cls-1" d="M63.827,7.2,59.982,8.813v4.342L56.26,14.768l-3.846,1.613-.868.372-2.978,1.365L44.846,19.73,41,21.343V22.46l1.365-.5,1.613-.5v8.56h23.7V8.813Z" transform="translate(9.866 1.732)"/>
  <path id="Path_595" data-name="Path 595" class="cls-2" d="M40.681,8.3,38.2,9.417V23.312l.124.124L43.038,21.7l1.613-.5v8.56h7.568V13.387Z" transform="translate(9.192 1.997)"/>
  <path id="Path_596" data-name="Path 596" class="cls-3" d="M59.4,21.505l3.846,1.737V18.9L59.4,20.513Z" transform="translate(14.293 4.548)"/>
  <path id="Path_597" data-name="Path 597" class="cls-4" d="M59.4,24.35l3.846-1.613h0L59.4,21Z" transform="translate(14.293 5.053)"/>
  <path id="Path_598" data-name="Path 598" class="cls-5" d="M59.4,18.129l3.846,1.613V15.4L59.4,17.137Z" transform="translate(14.293 3.706)"/>
  <path id="Path_599" data-name="Path 599" class="cls-6" d="M59.4,20.826l3.846-1.613L59.4,17.6Z" transform="translate(14.293 4.235)"/>
  <path id="Path_600" data-name="Path 600" class="cls-7" d="M59.4,14.605l3.846,1.613V12L59.4,13.613Z" transform="translate(14.293 2.887)"/>
  <path id="Path_601" data-name="Path 601" class="cls-8" d="M59.4,17.45l3.846-1.737L59.4,14.1Z" transform="translate(14.293 3.393)"/>
  <path id="Path_602" data-name="Path 602" class="cls-1" d="M56.3,8.813l3.846,1.613,3.846-1.613L60.146,7.2Z" transform="translate(13.547 1.732)"/>
  <path id="Path_603" data-name="Path 603" class="cls-9" d="M56.3,8.5v4.342l3.846-1.737,3.846,1.737V8.5l-3.846,1.613Z" transform="translate(13.547 2.045)"/>
  <path id="Path_604" data-name="Path 604" class="cls-10" d="M56.3,12.337l3.846,1.613,3.846-1.613L60.146,10.6Z" transform="translate(13.547 2.551)"/>
  <path id="Path_605" data-name="Path 605" class="cls-11" d="M56.3,22.929l3.846-1.737V20.2L56.3,21.937Z" transform="translate(13.547 4.861)"/>
  <path id="Path_606" data-name="Path 606" class="cls-12" d="M60.146,24.35V21L56.3,22.737Z" transform="translate(13.547 5.053)"/>
  <path id="Path_607" data-name="Path 607" class="cls-13" d="M56.3,19.405l3.846-1.613V16.8L56.3,18.413Z" transform="translate(13.547 4.042)"/>
  <path id="Path_608" data-name="Path 608" class="cls-14" d="M60.146,20.826V17.6L56.3,19.213Z" transform="translate(13.547 4.235)"/>
  <path id="Path_609" data-name="Path 609" class="cls-15" d="M56.3,22.25l3.846-1.737L56.3,18.9Z" transform="translate(13.547 4.548)"/>
  <path id="Path_610" data-name="Path 610" class="cls-16" d="M57.022,12,53.3,13.613l3.722,1.613Z" transform="translate(12.825 2.887)"/>
  <path id="Path_611" data-name="Path 611" class="cls-17" d="M60.146,13.613,56.3,12v3.226Z" transform="translate(13.547 2.887)"/>
  <path id="Path_612" data-name="Path 612" class="cls-18" d="M56.3,15.905l3.846-1.613V13.3L56.3,14.913Z" transform="translate(13.547 3.2)"/>
  <path id="Path_613" data-name="Path 613" class="cls-19" d="M60.146,17.45V14.1L56.3,15.713Z" transform="translate(13.547 3.393)"/>
  <path id="Path_614" data-name="Path 614" class="cls-20" d="M56.3,18.75l3.846-1.613L56.3,15.4Z" transform="translate(13.547 3.706)"/>
  <path id="Path_615" data-name="Path 615" class="cls-13" d="M53.3,20.705l3.722-1.613V18.1L53.3,19.713Z" transform="translate(12.825 4.355)"/>
  <path id="Path_616" data-name="Path 616" class="cls-14" d="M57.022,22.25V18.9L53.3,20.513Z" transform="translate(12.825 4.548)"/>
  <path id="Path_617" data-name="Path 617" class="cls-15" d="M53.3,23.55l3.722-1.613L53.3,20.2Z" transform="translate(12.825 4.861)"/>
  <path id="Path_618" data-name="Path 618" class="cls-16" d="M54.046,13.3,50.2,14.913l3.846,1.737Z" transform="translate(12.079 3.2)"/>
  <path id="Path_619" data-name="Path 619" class="cls-17" d="M57.022,14.913,53.3,13.3v3.35Z" transform="translate(12.825 3.2)"/>
  <path id="Path_620" data-name="Path 620" class="cls-18" d="M57.022,15.592V14.6L53.3,16.337v.992Z" transform="translate(12.825 3.513)"/>
  <path id="Path_621" data-name="Path 621" class="cls-19" d="M57.022,18.75V15.4L53.3,17.137Z" transform="translate(12.825 3.706)"/>
  <path id="Path_622" data-name="Path 622" class="cls-20" d="M53.3,20.026l3.722-1.613L53.3,16.8Z" transform="translate(12.825 4.042)"/>
  <path id="Path_623" data-name="Path 623" class="cls-13" d="M50.2,22.129l3.846-1.737V19.4L50.2,21.137Z" transform="translate(12.079 4.668)"/>
  <path id="Path_624" data-name="Path 624" class="cls-14" d="M54.046,23.55V20.2L50.2,21.937Z" transform="translate(12.079 4.861)"/>
  <path id="Path_625" data-name="Path 625" class="cls-16" d="M50.368,17.95V14.6l-.868.372v2.605Z" transform="translate(11.911 3.513)"/>
  <path id="Path_626" data-name="Path 626" class="cls-21" d="M50.077,17.505V14.9L47.1,16.265Z" transform="translate(11.333 3.585)"/>
  <path id="Path_627" data-name="Path 627" class="cls-22" d="M54.046,16.337,50.2,14.6v3.35Z" transform="translate(12.079 3.513)"/>
  <path id="Path_628" data-name="Path 628" class="cls-18" d="M54.046,16.992V16L50.2,17.613v.993Z" transform="translate(12.079 3.85)"/>
  <path id="Path_629" data-name="Path 629" class="cls-19" d="M54.046,16.8,50.2,18.413l3.846,1.613Z" transform="translate(12.079 4.042)"/>
  <path id="Path_630" data-name="Path 630" class="cls-20" d="M54.046,19.713,50.2,18.1v3.35Z" transform="translate(12.079 4.355)"/>
  <path id="Path_631" data-name="Path 631" class="cls-13" d="M49.5,21.172v.992l.868-.372V20.8Z" transform="translate(11.911 5.005)"/>
  <path id="Path_632" data-name="Path 632" class="cls-23" d="M50.077,22.092V21.1L47.1,22.341v.992h0Z" transform="translate(11.333 5.077)"/>
  <path id="Path_633" data-name="Path 633" class="cls-14" d="M49.5,21.972v2.481l.868.372V21.6Z" transform="translate(11.911 5.197)"/>
  <path id="Path_634" data-name="Path 634" class="cls-24" d="M50.077,24.381V21.9L47.1,23.141Z" transform="translate(11.333 5.27)"/>
  <path id="Path_635" data-name="Path 635" class="cls-21" d="M47.822,16,44.1,17.613l3.722,1.613Z" transform="translate(10.612 3.85)"/>
  <path id="Path_636" data-name="Path 636" class="cls-22" d="M50.368,17.372,49.5,17v.744Z" transform="translate(11.911 4.091)"/>
  <path id="Path_637" data-name="Path 637" class="cls-25" d="M50.077,17.985v-.744L47.1,16v3.226Z" transform="translate(11.333 3.85)"/>
  <path id="Path_638" data-name="Path 638" class="cls-18" d="M49.5,18.665l.868-.372V17.3l-.868.372Z" transform="translate(11.911 4.163)"/>
  <path id="Path_639" data-name="Path 639" class="cls-26" d="M50.077,18.592V17.6L47.1,18.841v.992Z" transform="translate(11.333 4.235)"/>
  <path id="Path_640" data-name="Path 640" class="cls-19" d="M50.368,21.45V18.1l-.868.372v2.605Z" transform="translate(11.911 4.355)"/>
  <path id="Path_641" data-name="Path 641" class="cls-27" d="M50.077,21.005V18.4L47.1,19.641Z" transform="translate(11.333 4.427)"/>
  <path id="Path_642" data-name="Path 642" class="cls-20" d="M49.5,20.5v.744l.868-.372Z" transform="translate(11.911 4.933)"/>
  <path id="Path_643" data-name="Path 643" class="cls-28" d="M50.077,20.765,47.1,19.4v3.35l2.978-1.241Z" transform="translate(11.333 4.668)"/>
  <path id="Path_644" data-name="Path 644" class="cls-26" d="M47.822,18.6,44.1,20.337v.993l3.722-1.737Z" transform="translate(10.612 4.476)"/>
  <path id="Path_645" data-name="Path 645" class="cls-27" d="M44.1,21.137l3.722,1.613V19.4Z" transform="translate(10.612 4.668)"/>
  <path id="Path_646" data-name="Path 646" class="cls-29" d="M44.1,24.026l3.722-1.613L44.1,20.8Z" transform="translate(10.612 5.005)"/>
  <path id="Path_647" data-name="Path 647" class="cls-25" d="M47.822,18.913,44.1,17.3v3.35Z" transform="translate(10.612 4.163)"/>
  <path id="Path_648" data-name="Path 648" class="cls-16" d="M57.526,6.044,55.913,5.3,54.3,6.044l1.613.744Z" transform="translate(13.066 1.275)"/>
  <path id="Path_649" data-name="Path 649" class="cls-7" d="M57.526,7.761V5.9l-1.613.744L54.3,5.9V7.761l1.613.62Z" transform="translate(13.066 1.42)"/>
  <path id="Path_650" data-name="Path 650" class="cls-16" d="M52.333,8.785l2.357-.992L52.333,6.8,50.1,7.792Z" transform="translate(12.055 1.636)"/>
  <path id="Path_651" data-name="Path 651" class="cls-7" d="M50.1,7.6v2.605l2.233.992,2.357-.992V7.6l-2.357.992Z" transform="translate(12.055 1.829)"/>
  <path id="Path_652" data-name="Path 652" class="cls-16" d="M51.926,4.52,50.313,3.9,48.7,4.52l1.613.744Z" transform="translate(11.718 0.938)"/>
  <path id="Path_653" data-name="Path 653" class="cls-7" d="M51.926,6.261V4.4l-1.613.744L48.7,4.4V6.261l1.613.744Z" transform="translate(11.718 1.059)"/>
  <path id="Path_654" data-name="Path 654" class="cls-16" d="M63.751,1.365,60.526,0,57.3,1.365l3.226,1.365Z" transform="translate(13.788)"/>
  <path id="Path_655" data-name="Path 655" class="cls-7" d="M60.526,2.465,57.3,1.1V4.822l3.226,1.365,3.226-1.365V1.1Z" transform="translate(13.788 0.265)"/>
  <path id="Path_656" data-name="Path 656" class="cls-11" d="M57.022,21.6,53.3,23.213v.992l3.722-1.613Z" transform="translate(12.825 5.197)"/>
  <path id="Path_657" data-name="Path 657" class="cls-12" d="M53.3,24.013l3.722,1.613V22.4Z" transform="translate(12.825 5.39)"/>
  <path id="Path_658" data-name="Path 658" class="cls-2" d="M54.046,23.213h0L50.2,21.6Z" transform="translate(12.079 5.197)"/>
  <path id="Path_659" data-name="Path 659" class="cls-15" d="M50.2,21.6v3.226l3.846-1.613Z" transform="translate(12.079 5.197)"/>
  <path id="Path_660" data-name="Path 660" class="cls-2" d="M47.1,25.6Z" transform="translate(11.333 6.16)"/>
  <path id="Path_661" data-name="Path 661" class="cls-2" d="M47.1,22.9Z" transform="translate(11.333 5.51)"/>
  <path id="Path_662" data-name="Path 662" class="cls-2" d="M49.5,23.9l.868.372Z" transform="translate(11.911 5.751)"/>
  <path id="Path_663" data-name="Path 663" class="cls-2" d="M47.1,22.9h0l2.978,1.241h0Z" transform="translate(11.333 5.51)"/>
  <path id="Path_664" data-name="Path 664" class="cls-15" d="M49.5,23.9v.744l.868-.372Z" transform="translate(11.911 5.751)"/>
  <path id="Path_665" data-name="Path 665" class="cls-30" d="M47.1,22.9v3.35l2.978-1.365v-.744Z" transform="translate(11.333 5.51)"/>
  <path id="Path_666" data-name="Path 666" class="cls-11" d="M50.2,24.513v.992l3.846-1.613V22.9Z" transform="translate(12.079 5.51)"/>
  <path id="Path_667" data-name="Path 667" class="cls-2" d="M53.3,22.9Z" transform="translate(12.825 5.51)"/>
  <path id="Path_668" data-name="Path 668" class="cls-11" d="M49.5,24.572v.992l.868-.372V24.2Z" transform="translate(11.911 5.823)"/>
  <path id="Path_669" data-name="Path 669" class="cls-31" d="M50.077,24.5,47.1,25.865h2.357l.62-.372Z" transform="translate(11.333 5.895)"/>
  <path id="Path_670" data-name="Path 670" class="cls-12" d="M49.5,25.372v.372h.868V25Z" transform="translate(11.911 6.016)"/>
  <path id="Path_671" data-name="Path 671" class="cls-30" d="M49,25.672h.62V25.3Z" transform="translate(11.791 6.088)"/>
  <path id="Path_672" data-name="Path 672" class="cls-11" d="M55.1,25.744h1.489V25Z" transform="translate(13.258 6.016)"/>
  <path id="Path_673" data-name="Path 673" class="cls-32" d="M47.822,23.092V22.1L44.1,23.713v.993Z" transform="translate(10.612 5.318)"/>
  <path id="Path_674" data-name="Path 674" class="cls-30" d="M44.1,24.513l3.722,1.737V22.9Z" transform="translate(10.612 5.51)"/>
  <path id="Path_675" data-name="Path 675" class="cls-33" d="M44.1,24.2v1.737h3.722Z" transform="translate(10.612 5.823)"/>
  <path id="Path_676" data-name="Path 676" class="cls-3" d="M59.4,25.005l3.1,1.365h.744V22.4L59.4,24.013Z" transform="translate(14.293 5.39)"/>
  <path id="Path_677" data-name="Path 677" class="cls-2" d="M59.4,24.013,63.246,22.4h0Z" transform="translate(14.293 5.39)"/>
  <path id="Path_678" data-name="Path 678" class="cls-12" d="M56.3,25.626l3.846-1.613L56.3,22.4Z" transform="translate(13.547 5.39)"/>
  <path id="Path_679" data-name="Path 679" class="cls-11" d="M60.146,23.7,56.3,25.313v.744h.868l2.977-1.365Z" transform="translate(13.547 5.703)"/>
  <path id="Path_680" data-name="Path 680" class="cls-4" d="M59.4,25.865h3.1L59.4,24.5Z" transform="translate(14.293 5.895)"/>
  <path id="Path_681" data-name="Path 681" class="cls-12" d="M57,25.865h2.977V24.5Z" transform="translate(13.716 5.895)"/>
  <path id="Path_682" data-name="Path 682" class="cls-12" d="M50.2,25.313l1.489.744h2.357V23.7Z" transform="translate(12.079 5.703)"/>
  <path id="Path_683" data-name="Path 683" class="cls-12" d="M53.3,23.7v2.357h2.233l1.489-.744Z" transform="translate(12.825 5.703)"/>
  <path id="Path_684" data-name="Path 684" class="cls-12" d="M50.2,25.744h1.489L50.2,25Z" transform="translate(12.079 6.016)"/>
  <path id="Path_685" data-name="Path 685" class="cls-34" d="M3.846,19.008V17.271l1.613.5,11.166,3.35,15.012-4.838.5-.124.5.248,13.523,7.444V3.5L30.767,10.2,15.384,6.726,0,13.053V33.771H3.846Z" transform="translate(0 0.842)"/>
  <path id="Path_686" data-name="Path 686" class="cls-12" d="M43.4,24.572v1.365h.868V24.2Z" transform="translate(10.443 5.823)"/>
  <path id="Path_687" data-name="Path 687" class="cls-11" d="M43.4,23.2v1.613l.868-.372v-.993Z" transform="translate(10.443 5.582)"/>
  <path id="Path_688" data-name="Path 688" class="cls-35" d="M43.4,21.048v2.729l.868.248V20.8Z" transform="translate(10.443 5.005)"/>
  <g id="Group_1755" data-name="Group 1755" transform="translate(50.866 23.076)">
    <path id="Path_689" data-name="Path 689" class="cls-36" d="M42.365,19.22h0L41,18.6v1.117Z" transform="translate(-41 -18.6)"/>
    <path id="Path_690" data-name="Path 690" class="cls-36" d="M43.4,19.7v1.613l.868-.248v-.993Z" transform="translate(-40.423 -18.335)"/>
  </g>
  <path id="Path_691" data-name="Path 691" class="cls-21" d="M41,18.913l1.365.62,1.613-.5v1.241l.868.372V17.3Z" transform="translate(9.866 4.163)"/>
  <g id="Group_1780" data-name="Group 1780" transform="translate(90.317 11.042)">
    <g id="Group_1765" data-name="Group 1765" transform="translate(98.8)">
      <g id="Group_1756" data-name="Group 1756" transform="translate(0 0.295)">
        <path id="Path_692" data-name="Path 692" class="cls-34" d="M176.839,28.631a.361.361,0,0,1-.295-.1c-.1-.1-.1-.295-.1-.59V9.953c0-.295-.1-.393-.2-.393H173.5a.343.343,0,0,1-.1-.2c0-.1-.1-.2-.1-.393V7.79c0-.295,0-.492.1-.492a.361.361,0,0,1,.295-.1h8.455a.361.361,0,0,1,.295.1.737.737,0,0,1,.1.492V8.97c0,.295,0,.393-.1.492a.361.361,0,0,1-.295.1h-2.556c-.1,0-.2.1-.2.393v17.99c0,.295,0,.492-.1.59a.361.361,0,0,1-.295.1Z" transform="translate(-173.3 -7.2)"/>
      </g>
      <g id="Group_1757" data-name="Group 1757" transform="translate(10.322 0.098)">
        <path id="Path_693" data-name="Path 693" class="cls-34" d="M184,28.628c-.2,0-.2-.1-.2-.393v-.59l3.342-19.858c.1-.492.295-.688.59-.786h3.048c.295,0,.492.295.492.786l3.342,19.858v.59c0,.295-.1.393-.295.393h-2.458c-.2,0-.393-.2-.492-.59l-.59-3.834c0-.2-.1-.295-.2-.295h-3.637c-.1,0-.1.1-.2.295l-.59,3.736a.578.578,0,0,1-.2.492.361.361,0,0,1-.295.1H184Zm3.539-6.587h3.048c.1,0,.1-.1.1-.295v-.1l-1.475-11.5v-.1a.1.1,0,0,0-.1.1l-1.77,11.5v.1C187.339,21.943,187.437,22.041,187.536,22.041Z" transform="translate(-183.8 -7)"/>
      </g>
      <g id="Group_1758" data-name="Group 1758" transform="translate(22.513 0.197)">
        <path id="Path_694" data-name="Path 694" class="cls-34" d="M196.4,28.63c-.1,0-.2-.1-.2-.393a1.069,1.069,0,0,1,.1-.492l3.736-9.634L196.495,7.985a1.069,1.069,0,0,1-.1-.492c0-.295.1-.393.2-.393h2.851c.295,0,.492.295.688.786L202,13.392l2.064-5.505c.2-.492.393-.786.688-.786h1.77c.1,0,.2.1.2.393,0,.2,0,.295-.1.393l-3.441,8.848,3.736,11.011a.591.591,0,0,1,.1.393c0,.295-.1.492-.2.492h-2.654c-.295,0-.492-.295-.688-.786l-2.261-6.292-2.458,6.39c-.2.492-.393.786-.688.786H196.4Z" transform="translate(-196.2 -7.1)"/>
      </g>
      <g id="Group_1759" data-name="Group 1759" transform="translate(38.635)">
        <path id="Path_695" data-name="Path 695" class="cls-34" d="M217.909,6.9a5.323,5.323,0,0,1,4.424,2.064.751.751,0,0,1,.2.492,1.638,1.638,0,0,1-.393,1.081c-.295.393-.59.59-.786.59-.1,0-.1,0-.1-.1a3.95,3.95,0,0,0-3.146-1.573,1.931,1.931,0,0,0-1.671.885,3.739,3.739,0,0,0-.59,2.163,3.872,3.872,0,0,0,.492,1.966,5.462,5.462,0,0,0,1.573,1.376l1.868,1.18a6.4,6.4,0,0,1,3.048,5.7,6.8,6.8,0,0,1-1.376,4.424,4.439,4.439,0,0,1-3.736,1.77,5.671,5.671,0,0,1-5.014-2.753.361.361,0,0,1-.1-.295,2.094,2.094,0,0,1,.393-1.18c.295-.393.59-.59.786-.59a.361.361,0,0,1,.295.1,4.425,4.425,0,0,0,3.539,2.163,2.283,2.283,0,0,0,1.868-.885,4.105,4.105,0,0,0,.688-2.261,4.269,4.269,0,0,0-.492-2.064,7.677,7.677,0,0,0-1.573-1.475L216.237,18.4a10.447,10.447,0,0,1-1.081-.885,10.442,10.442,0,0,1-.885-1.081,5.137,5.137,0,0,1-.688-1.475,5.746,5.746,0,0,1-.2-1.868,6.666,6.666,0,0,1,1.278-4.326A4.024,4.024,0,0,1,217.909,6.9Z" transform="translate(-212.6 -6.9)"/>
      </g>
      <g id="Group_1760" data-name="Group 1760" transform="translate(50.924 0.295)">
        <path id="Path_696" data-name="Path 696" class="cls-34" d="M230.8,28.828a6.046,6.046,0,0,1-1.376-.1,2.617,2.617,0,0,1-1.18-.295,3.814,3.814,0,0,1-1.081-.59,5.215,5.215,0,0,1-.885-1.081,7.61,7.61,0,0,1-.688-1.573,11.845,11.845,0,0,1-.393-2.261,28.629,28.629,0,0,1-.1-3.048V7.888c0-.295,0-.492.1-.59a.361.361,0,0,1,.295-.1h2.359c.1,0,.1.1.1.2a4.258,4.258,0,0,1,.1.492V19.882a25.831,25.831,0,0,0,.1,2.949c.1.786.2,1.475.295,1.966a1.655,1.655,0,0,0,.59,1.081,1.351,1.351,0,0,0,.786.492,3.031,3.031,0,0,0,.983.1,3.209,3.209,0,0,0,1.18-.2,1.432,1.432,0,0,0,.786-.885,7.088,7.088,0,0,0,.492-1.966c.1-.885.1-2.064.1-3.637V7.888c0-.295,0-.492.1-.59a.361.361,0,0,1,.295-.1h2.458a.343.343,0,0,1,.1.2,4.258,4.258,0,0,1,.1.492V19.98a28.629,28.629,0,0,1-.1,3.048,11.842,11.842,0,0,1-.393,2.261,5.828,5.828,0,0,1-.688,1.573,10.451,10.451,0,0,1-.885,1.081,1.942,1.942,0,0,1-1.081.59l-1.18.295Z" transform="translate(-225.1 -7.2)"/>
      </g>
      <g id="Group_1761" data-name="Group 1761" transform="translate(65.08 0.197)">
        <path id="Path_697" data-name="Path 697" class="cls-34" d="M239.893,28.63c-.2,0-.393-.2-.393-.688v-.1l.688-19.858c0-.59.1-.786.393-.885h2.359a.511.511,0,0,1,.393.2.831.831,0,0,1,.2.59l2.556,14.156a.1.1,0,0,0,.1.1h.1v-.1l2.556-14.058c.1-.492.295-.688.59-.786h2.359c.2,0,.393.295.393.885l.688,19.858v.1c0,.492-.1.688-.393.688h-1.671c-.2,0-.393-.295-.393-.786l-.492-15.336v-.1h-.1L247.07,28.04c-.1.492-.295.688-.492.688H245.6c-.2,0-.393-.2-.492-.688l-2.654-15.434c0-.1,0-.1-.1,0v.1l-.393,15.139c0,.492-.1.786-.295.786Z" transform="translate(-239.5 -7.1)"/>
      </g>
      <g id="Group_1762" data-name="Group 1762" transform="translate(81.301 0.197)">
        <path id="Path_698" data-name="Path 698" class="cls-34" d="M256.393,28.63c-.2,0-.393-.2-.393-.688v-.1l.688-19.858c0-.59.1-.786.393-.885h2.359a.511.511,0,0,1,.393.2.831.831,0,0,1,.2.59l2.556,14.156a.1.1,0,0,0,.1.1h.1v-.1l2.556-14.058c.1-.492.295-.688.59-.786h2.359c.2,0,.393.295.393.885l.688,19.858v.1c0,.492-.1.688-.393.688h-1.671c-.2,0-.393-.295-.393-.786l-.492-15.336v-.1h-.1L263.57,28.04c-.1.492-.295.688-.492.688H262.1c-.2,0-.393-.2-.492-.688l-2.654-15.533c0-.1,0-.1-.1,0v.1l-.492,15.238c0,.492-.1.786-.295.786Z" transform="translate(-256 -7.1)"/>
      </g>
      <g id="Group_1763" data-name="Group 1763" transform="translate(97.817 0.295)">
        <path id="Path_699" data-name="Path 699" class="cls-34" d="M273.193,28.631H273c-.1,0-.1-.1-.1-.2a4.258,4.258,0,0,1-.1-.492V7.888c0-.295,0-.492.1-.59a.361.361,0,0,1,.295-.1h2.359c.1,0,.1.1.1.2a4.257,4.257,0,0,1,.1.492V27.943c0,.295,0,.492-.1.59a.361.361,0,0,1-.295.1Z" transform="translate(-272.8 -7.2)"/>
      </g>
      <g id="Group_1764" data-name="Group 1764" transform="translate(102.831 0.295)">
        <path id="Path_700" data-name="Path 700" class="cls-34" d="M281.439,28.631a.361.361,0,0,1-.295-.1c-.1-.1-.1-.295-.1-.59V9.953c0-.295-.1-.393-.2-.393H278.1a.343.343,0,0,1-.1-.2c0-.1-.1-.2-.1-.393V7.79c0-.295,0-.492.1-.492a.361.361,0,0,1,.295-.1h8.455a.361.361,0,0,1,.295.1.736.736,0,0,1,.1.492V8.97c0,.295,0,.393-.1.492a.361.361,0,0,1-.295.1h-2.556c-.1,0-.2.1-.2.393v17.99c0,.295,0,.492-.1.59a.361.361,0,0,1-.295.1Z" transform="translate(-277.9 -7.2)"/>
      </g>
    </g>
    <g id="Group_1770" data-name="Group 1770" transform="translate(48.761 0.098)">
      <g id="Group_1766" data-name="Group 1766" transform="translate(0 0.098)">
        <path id="Path_701" data-name="Path 701" class="cls-37" d="M122.793,28.728a.361.361,0,0,1-.295-.1c-.1-.1-.1-.295-.1-.59V7.788c0-.295,0-.492.1-.59s.1-.1.295-.1h.983a.361.361,0,0,1,.295.1c.1.1.1.295.1.59V27.941c0,.295,0,.492-.1.59s-.1.1-.295.1h-.983Z" transform="translate(-122.4 -7.1)"/>
      </g>
      <g id="Group_1767" data-name="Group 1767" transform="translate(4.62)">
        <path id="Path_702" data-name="Path 702" class="cls-37" d="M132.31,28.923a5.523,5.523,0,0,1-1.966-.295,4.293,4.293,0,0,1-1.475-.983,5.273,5.273,0,0,1-.983-1.966c-.2-.885-.393-1.868-.59-3.146-.1-1.278-.2-2.753-.2-4.62a37.5,37.5,0,0,1,.492-6.587,6.278,6.278,0,0,1,1.671-3.342,5.215,5.215,0,0,1,6.1,0,6.249,6.249,0,0,1,1.573,3.342,29.344,29.344,0,0,1,.492,6.587c0,1.868-.1,3.342-.2,4.62a19.325,19.325,0,0,1-.492,3.146,4.61,4.61,0,0,1-.983,1.966,3.02,3.02,0,0,1-1.475.983A5.523,5.523,0,0,1,132.31,28.923Zm0-1.475a2.769,2.769,0,0,0,2.064-.688,5.675,5.675,0,0,0,1.081-2.851,43.637,43.637,0,0,0,.393-6.1,43.942,43.942,0,0,0-.295-5.8,5.562,5.562,0,0,0-1.081-2.851,2.851,2.851,0,0,0-4.129,0,5.975,5.975,0,0,0-1.081,2.949,41.657,41.657,0,0,0-.295,5.6,32.312,32.312,0,0,0,.393,6.1,5.208,5.208,0,0,0,1.081,2.851C130.737,27.252,131.426,27.448,132.31,27.448Z" transform="translate(-127.1 -7)"/>
      </g>
      <g id="Group_1768" data-name="Group 1768" transform="translate(16.712 0.098)">
        <path id="Path_703" data-name="Path 703" class="cls-37" d="M143.136,28.728a.361.361,0,0,1-.295-.1c-.1-.1-.1-.295-.1-.59V8.968c0-.295-.1-.393-.2-.393H139.6l-.1-.1c0-.1-.1-.2-.1-.295V7.69c0-.295,0-.393.1-.492s.1-.1.295-.1h7.373a.361.361,0,0,1,.295.1c.1.1.1.2.1.492v.688a.1.1,0,0,1-.1.1H144.61c-.1,0-.2.1-.2.393V27.941c0,.295,0,.492-.1.59a.361.361,0,0,1-.295.1h-.885Z" transform="translate(-139.4 -7.1)"/>
      </g>
      <g id="Group_1769" data-name="Group 1769" transform="translate(26.15 0.197)">
        <path id="Path_704" data-name="Path 704" class="cls-37" d="M149.2,28.73c-.2,0-.2-.2-.2-.492v-.393l3.736-19.858c.1-.492.295-.786.492-.786H154.6c.295,0,.393.295.492.786l3.539,19.858c0,.1,0,.1.1.2v.2c0,.295-.1.492-.2.492h-1.081c-.295,0-.492-.2-.59-.688l-.688-4.326a.343.343,0,0,0-.1-.2h-4.719a.3.3,0,0,1-.1.2l-.786,4.326c-.1.295-.1.492-.2.59s-.2.2-.295.2H149.2Zm2.654-6.488h4.031a.1.1,0,0,0,.1-.1v-.1l-1.966-12.78v0l-2.163,12.78v.1C151.753,22.241,151.753,22.241,151.851,22.241Z" transform="translate(-149 -7.2)"/>
      </g>
    </g>
    <g id="Group_1775" data-name="Group 1775" transform="translate(0 0)">
      <g id="Group_1771" data-name="Group 1771">
        <path id="Path_705" data-name="Path 705" class="cls-37" d="M78.109,28.823a3.686,3.686,0,0,1-1.081-.1,2.563,2.563,0,0,1-1.081-.295,3.531,3.531,0,0,1-.983-.688,4.764,4.764,0,0,1-.885-1.278A7.58,7.58,0,0,1,73.39,24.5,18.124,18.124,0,0,1,73,21.646c-.1-1.081-.2-2.359-.2-3.834,0-1.376.1-2.556.2-3.736a17.471,17.471,0,0,1,.492-2.753,9.171,9.171,0,0,1,.688-1.966,4.764,4.764,0,0,1,.885-1.278,2.545,2.545,0,0,1,1.081-.688A7.467,7.467,0,0,1,77.224,7a4.786,4.786,0,0,1,1.18-.1,4.066,4.066,0,0,1,2.064.393c.1.1.2.1.2.2v.983c0,.1,0,.2-.1.2h-.1a.361.361,0,0,1-.295-.1c-.1,0-.295-.1-.393-.1-.2,0-.295-.1-.492-.1H78.7a4.981,4.981,0,0,0-1.278.2,3.3,3.3,0,0,0-2.163,2.359,25.248,25.248,0,0,0-.59,2.753,27.072,27.072,0,0,0-.2,4.227c0,1.671.1,3.048.2,4.227a14.039,14.039,0,0,0,.492,2.753,3.48,3.48,0,0,0,.885,1.573,2.23,2.23,0,0,0,1.081.688,4.363,4.363,0,0,0,1.278.2,5.724,5.724,0,0,0,1.868-.295.1.1,0,0,1,.1.1v1.081c0,.1,0,.2-.1.2A5.291,5.291,0,0,1,78.109,28.823Z" transform="translate(-72.8 -6.9)"/>
      </g>
      <g id="Group_1772" data-name="Group 1772" transform="translate(10.322 0.393)">
        <path id="Path_706" data-name="Path 706" class="cls-37" d="M83.693,28.633a.361.361,0,0,1-.295-.1c-.1-.1-.1-.295-.1-.59V7.988c0-.295,0-.492.1-.59s.1-.1.295-.1h.983a.361.361,0,0,1,.295.1V27.945c0,.295,0,.492-.1.59,0,.1-.1.1-.2.1Z" transform="translate(-83.3 -7.3)"/>
      </g>
      <g id="Group_1773" data-name="Group 1773" transform="translate(14.451 0.393)">
        <path id="Path_707" data-name="Path 707" class="cls-37" d="M87.7,28.633c-.2,0-.2-.2-.2-.492v-.393L91.137,8.086c.1-.492.295-.786.492-.786h1.376c.295,0,.393.295.492.786l3.441,19.662c0,.1,0,.1.1.2v.2c0,.295-.1.492-.2.492H95.758c-.295,0-.492-.2-.59-.688l-.688-4.326a.343.343,0,0,0-.1-.2H89.958a.3.3,0,0,1-.1.2l-.786,4.227c-.1.295-.1.492-.2.59s-.2.2-.295.2H87.7Zm2.654-6.39h4.031a.1.1,0,0,0,.1-.1v-.1L92.514,9.364v0L90.351,21.948v.1C90.253,22.243,90.253,22.243,90.351,22.243Z" transform="translate(-87.5 -7.3)"/>
      </g>
      <g id="Group_1774" data-name="Group 1774" transform="translate(24.577 0.295)">
        <path id="Path_708" data-name="Path 708" class="cls-37" d="M101.437,28.631a.361.361,0,0,1-.295-.1c-.1-.1-.1-.295-.1-.59V9.068c0-.295-.1-.393-.2-.393H98l-.1-.1c0-.1-.1-.2-.1-.295V7.79c0-.295,0-.393.1-.492s.1-.1.295-.1h7.275a.361.361,0,0,1,.295.1c.1.1.1.2.1.492v.688a.1.1,0,0,1-.1.1h-2.851c-.1,0-.2.1-.2.393V27.845c0,.295,0,.492-.1.59s-.1.1-.295.1h-.885Z" transform="translate(-97.8 -7.2)"/>
      </g>
    </g>
    <g id="Group_1777" data-name="Group 1777" transform="translate(36.276 16.221)">
      <g id="Group_1776" data-name="Group 1776">
        <path id="Path_709" data-name="Path 709" class="cls-34" d="M115.3,29h-5.6l5.6-5.6Z" transform="translate(-109.7 -23.4)"/>
      </g>
    </g>
  </g>
  <g id="Group_1779" data-name="Group 1779" transform="translate(5.087 18.361)">
    <g id="Group_1778" data-name="Group 1778">
      <path id="Path_710" data-name="Path 710" class="cls-38" d="M4.1,16.289l11.538,3.35L31.022,14.8l15.384,8.436,5.211-1.861v12.9H4.1Z" transform="translate(-4.1 -14.8)"/>
    </g>
  </g>
</svg>
